<?xml version="1.0" encoding="utf-8"?>
<!-- Generator: Adobe Illustrator 26.0.1, SVG Export Plug-In . SVG Version: 6.00 Build 0)  -->
<svg version="1.1" id="Layer_1" xmlns="http://www.w3.org/2000/svg" xmlns:xlink="http://www.w3.org/1999/xlink" x="0px" y="0px"
	 viewBox="0 0 300 100" style="enable-background:new 0 0 300 100;" xml:space="preserve">
<style type="text/css">
	.st0{fill:#8BC53F;}
	.st1{fill:#FFFFFF;}
</style>
<circle class="st0" cx="277.62" cy="62.06" r="2.61"/>
<polygon class="st1" points="83.92,41.31 91.69,41.31 91.71,72.42 83.92,64.91 "/>
<path class="st1" d="M96.02,41.71h6.61l0.17,2.58c0,0,2.86-2.98,8.36-2.98c0,0,5.69-0.2,5.84,7.24l0.1,15.47h-7.32l-0.02-13.37
	c0,0,0.28-3.7-2.59-3.65c-2.87,0.06-3.83,1.46-3.83,1.46l-0.02,15.61h-7.24L96.02,41.71z"/>
<polygon class="st1" points="118.79,63.99 126.37,63.99 129.58,52.61 133.21,61.39 146.98,74.57 134.16,41.31 127.18,41.31 "/>
<polygon class="st1" points="80.14,41.4 72.56,41.4 69.34,52.78 65.72,44 51.94,30.81 64.77,64.08 71.74,64.08 "/>
<polygon class="st1" points="173.98,23.27 173.98,38.3 183.71,53.31 176.41,64.94 186.08,64.94 188.54,60.86 197.04,74.02 
	206.71,74.02 193.35,53.26 200.95,41.29 191.34,41.24 188.51,45.74 "/>
<g>
	<path class="st1" d="M27.73,51.89l-7.2,12.56l18.5-0.16C39.04,64.29,33.94,61.41,27.73,51.89z"/>
	<path class="st1" d="M27.41,35.95c0,0,11.8,28.68,32.65,27.99L43.73,35.95H27.41z"/>
</g>
<path class="st1" d="M203.39,39.15l7.2-6.81l0.12,12.24c0,0,12.85-8,13.76,5.48v14.69h-7.39l0.09-13.9c0,0-0.07-5.6-6.51-1.47
	l0.09,15.55h-7.25L203.39,39.15z"/>
<path class="st1" d="M251.08,39.15l7.2-6.81l0.12,12.24c0,0,12.85-8,13.76,5.48v14.69h-7.39l0.09-13.9c0,0-0.07-5.6-6.51-1.47
	l0.09,15.55h-7.25L251.08,39.15z"/>
<path class="st0" d="M248.31,70.55l-7.2,6.81l-0.12-12.24c0,0-12.85,8-13.76-5.48V44.95h7.39l-0.09,13.9c0,0,0.07,5.6,6.51,1.47
	l-0.09-15.55h7.25L248.31,70.55z"/>
<g>
	<path class="st1" d="M153.4,55.51h11.97c0,0,0.77,0.21,0.77,1.2s-0.79,1.2-0.79,1.2h-14.51l-5.95,6.1h20.89
		c0,0,6.41-1.28,6.41-7.18s-6.2-6.64-6.2-6.64h-7.45L153.4,55.51z"/>
	<path class="st1" d="M153.59,47.46c0,0-0.88,0.05-0.88,1.17c0,1.11,0.88,1.17,0.88,1.17h2.6l-5.02,5.02c0,0-4.48-0.91-4.48-6.24
		s4.75-6.79,4.75-6.79s1.3-0.33,2.47-0.35l20.08-0.08l-6.11,6.13L153.59,47.46z"/>
</g>
</svg>
